<?xml version="1.0" encoding="UTF-8" standalone="no"?>
<svg
   xmlns:dc="http://purl.org/dc/elements/1.1/"
   xmlns:cc="http://creativecommons.org/ns#"
   xmlns:rdf="http://www.w3.org/1999/02/22-rdf-syntax-ns#"
   xmlns:svg="http://www.w3.org/2000/svg"
   xmlns="http://www.w3.org/2000/svg"
   id="svg8"
   version="1.1"
   viewBox="0 0 155.39667 64.247744"
   height="64.247742mm"
   width="155.39667mm">
  <defs
     id="defs2" />
  <metadata
     id="metadata5">
    <rdf:RDF>
      <cc:Work
         rdf:about="">
        <dc:format>image/svg+xml</dc:format>
        <dc:type
           rdf:resource="http://purl.org/dc/dcmitype/StillImage" />
        <dc:title></dc:title>
      </cc:Work>
    </rdf:RDF>
  </metadata>
  <g
     transform="translate(-23.198081,-26.369045)"
     id="layer1">
    <path
       id="path21"
       d="m 61.485962,90.209561 c 3.602146,-1.564637 6.941714,-4.264274 7.800344,-6.305615 C 69.571211,83.22661 69.503649,83.20167 66.908942,83.02669 62.361833,82.720022 37.41391,80.272668 30.925227,79.496736 L 29.723172,79.352988 29.521473,63.600963 c -0.228657,-17.857434 0.0378,-16.692532 -4.072797,-17.80406 l -2.250595,-0.608564 4.923326,-0.338868 c 5.942525,-0.40902 14.234516,-1.21089 15.409342,-1.490157 0.826854,-0.196563 0.847699,0.318279 0.688094,16.993679 l -0.164588,17.196382 6.880941,1.027309 c 3.784517,0.565024 9.602568,1.446729 12.929003,1.959341 3.326434,0.512612 6.164822,0.863875 6.307529,0.780585 0.142708,-0.08323 0.25976,-2.571076 0.260118,-5.528418 3.57e-4,-2.957342 0.136741,-9.973479 0.303078,-15.591414 L 71.03735,49.982347 74.044647,48.59089 c 6.460723,-2.989324 16.918202,-5.354629 23.673828,-5.354629 2.394625,0 2.472575,0.02407 2.978995,0.919634 0.5613,0.992637 0.1049,2.478048 -1.239146,4.033436 -0.783686,0.906885 -4.310799,3.671519 -4.524779,3.546623 -0.07671,-0.04471 0.364406,-0.921313 0.980246,-1.947872 2.325789,-3.876957 1.163065,-5.570136 -3.825036,-5.570136 -4.163763,0 -8.6591,1.422378 -10.952972,3.46564 -0.561261,0.499939 -0.812066,1.529292 -0.975342,4.002979 l -0.219795,3.329969 7.516285,0.03433 7.516287,0.03433 -5.046025,0.375231 c -2.775312,0.206387 -6.078164,0.52226 -7.339669,0.701955 l -2.293648,0.326709 -0.272686,9.906142 c -0.28772,10.452333 -0.548191,11.804704 -2.769661,14.380017 -0.471267,0.546325 -0.856852,1.103966 -0.856852,1.239184 0,0.311997 5.676217,0.808857 11.664625,1.021074 7.212053,0.255565 12.023838,-0.217527 17.005968,-1.672049 5.67021,-1.655416 6.74869,-2.209744 7.07493,-3.636502 0.21485,-0.939664 0.45924,-1.173967 1.29685,-1.243403 0.86463,-0.07165 1.03214,0.03921 1.03214,0.682678 0,1.782364 -3.19903,3.556606 -8.71585,4.833939 -6.18669,1.432435 -9.671726,1.736857 -20.667352,1.805356 l -10.345958,0.06447 -4.104018,2.380617 c -3.684006,2.136958 -8.679339,4.388517 -9.686511,4.366009 -0.209543,-0.0056 0.03189,-0.187841 0.536469,-0.407025 z m 87.846688,-0.919028 c -5.12325,-0.648668 -8.58196,-1.377424 -12.71992,-2.680094 -4.59796,-1.447493 -7.47984,-2.925577 -9.34377,-4.792279 l -1.56091,-1.563236 -4.22684,-0.174309 c -5.60288,-0.231065 -5.75224,-0.269847 -5.02821,-1.305463 0.57395,-0.820954 0.58286,-0.822685 3.88304,-0.760229 3.83914,0.07264 3.81932,0.09284 2.36865,-2.420397 -1.1234,-1.946319 -1.00485,-2.511225 0.2324,-1.107317 0.49001,0.556022 1.93323,1.978742 3.20714,3.161624 1.27391,1.182876 2.72908,2.625243 3.23367,3.205275 1.8513,2.128018 6.81969,4.302876 12.90434,5.648733 2.67488,0.591652 7.52878,1.444918 8.2196,1.444918 0.11394,0 0.20698,-0.354334 0.20698,-0.787397 0,-1.178372 0.83908,-1.252213 1.00388,-0.08832 l 0.14287,1.009608 4.35793,-0.01104 c 6.12387,-0.01514 7.81175,-0.571538 10.35452,-3.413261 l 1.14731,-1.282166 -1.73703,0.514213 c -2.93759,0.869626 -6.55319,1.197567 -11.63015,1.054873 -4.69725,-0.132004 -4.71114,-0.134442 -10.39368,-1.825227 -6.18606,-1.840595 -8.604,-2.997017 -10.14105,-4.850176 -1.27507,-1.537271 -1.32112,-3.81508 -0.11187,-5.532512 1.10864,-1.574487 1.53137,-4.065628 0.68993,-4.065628 -0.32218,0 -1.61676,0.138895 -2.87687,0.308665 -2.7902,0.375893 -5.89907,-0.03798 -7.42999,-0.989049 l -1.00028,-0.621436 3.37609,0.140032 c 2.95374,0.122501 3.6298,0.06027 5.4042,-0.497389 3.49692,-1.099032 3.93538,-1.669566 3.93538,-5.120943 0,-3.4018 0.23525,-3.784913 3.77955,-6.15512 1.43666,-0.960733 2.61557,-2.135228 3.44542,-3.432488 1.47219,-2.301367 1.99528,-2.837823 2.48717,-2.55073 0.19691,0.11494 -0.0807,1.174109 -0.61687,2.353681 -0.82743,1.820261 -0.87488,2.16711 -0.31371,2.292801 1.68369,0.377074 5.39567,-0.288044 11.51632,-2.063529 5.81843,-1.687824 8.83143,-2.252574 8.83143,-1.655358 0,0.118262 -2.71831,0.99066 -6.0407,1.938654 -6.9084,1.971254 -7.85787,2.528828 -9.51069,5.585358 -0.56177,1.038891 -1.21468,1.958614 -1.45087,2.043803 -0.57805,0.208518 -0.53949,-1.10719 0.0701,-2.388323 0.66217,-1.391909 -0.0928,-1.833882 -3.13218,-1.833882 -4.0276,0 -6.79718,1.519677 -7.29997,4.005507 -0.59463,2.939946 1.7791,4.936656 7.87628,6.625341 1.94033,0.537406 3.64274,0.910075 3.78311,0.828143 0.14043,-0.08191 0.0155,-0.615508 -0.27704,-1.185744 -1.01971,-1.986465 -0.44748,-2.559262 1.0406,-1.041606 1.0958,1.11761 2.57898,2.075562 3.20912,2.072714 0.46393,-0.0022 3.55003,-1.249307 14.31788,-5.786457 4.88467,-2.058209 6.06984,-2.963835 7.03016,-5.371939 1.0207,-2.559472 -1.31047,-6.270015 -4.39344,-6.993109 -1.52529,-0.357733 -19.41565,-1.699968 -19.97403,-1.498548 -0.20449,0.07374 -0.53935,0.511541 -0.74418,0.972844 -0.65094,1.466192 -1.3755,1.164449 -1.72065,-0.71656 -0.30366,-1.654939 -0.71209,-2.100918 -1.36196,-1.487221 -0.15588,0.147261 -0.50182,0.267742 -0.76863,0.267742 -0.60731,0 -0.34771,-0.63062 1.38978,-3.376134 2.6651,-4.211144 2.85872,-8.072094 0.60282,-12.018541 -0.92803,-1.623456 -5.02409,-4.166348 -7.41681,-4.604435 -1.56515,-0.286575 -1.5353,-0.294656 1.18569,-0.321304 2.49662,-0.02451 2.90973,0.05034 3.91396,0.708931 3.88732,2.549196 6.00431,5.507709 6.08269,8.500544 0.027,1.030777 -0.34191,3.713192 -0.81979,5.960941 -0.47788,2.247751 -0.78584,4.133837 -0.68435,4.191318 0.10143,0.05751 2.66162,0.294722 5.68923,0.527227 14.9026,1.144425 16.81018,1.45745 19.2815,3.163985 2.35347,1.625156 2.92426,2.807908 3.47843,7.20771 0.54983,4.365359 0.34277,10.458759 -0.43098,12.683239 -0.25613,0.736264 -0.72449,2.121782 -1.04082,3.078942 -0.31637,0.957134 -0.83336,2.10608 -1.14888,2.553208 -0.31551,0.447122 -1.01684,1.832635 -1.5585,3.078929 -1.08599,2.498817 -4.0746,6.406097 -6.59501,8.62225 -3.29191,2.894575 -9.23193,3.749677 -18.17857,2.61693 z m 15.3598,-6.712957 c 3.88581,-1.135166 8.85988,-6.036922 9.28851,-9.153498 0.15969,-1.161378 0.0632,-1.798026 -0.29179,-1.926101 -0.32247,-0.116319 -2.36816,0.913751 -5.21848,2.627659 -3.62497,2.179703 -5.31224,2.985706 -7.44045,3.554273 -6.47935,1.730969 -12.02615,0.684279 -22.0106,-4.153439 -1.2569,-0.608986 -2.42366,-1.10726 -2.59283,-1.10726 -0.56563,0 -1.31488,1.672526 -1.30725,2.918088 0.0109,1.619563 1.45612,3.07839 4.35699,4.3951 2.63724,1.19704 7.93719,2.726674 10.70528,3.089669 l 1.90318,0.249577 v -0.875147 c 0,-2.689859 1.57332,-3.55624 1.65775,-0.91288 0.034,1.063143 0.27449,1.723499 0.68809,1.889309 1.05872,0.424396 8.18641,0.01104 10.2616,-0.59535 z M 152.7416,74.293344 c -0.1906,-1.128913 -0.14391,-1.874134 0.11723,-1.874134 0.23851,0 1.034,0.733117 1.7678,1.629141 2.1645,2.643137 3.05714,2.70081 8.71048,0.562729 4.82953,-1.826518 9.70187,-4.764477 11.55606,-6.968147 1.03401,-1.228907 1.30553,-1.959983 1.43597,-3.866393 0.18959,-2.771103 -0.10556,-3.673186 -1.20174,-3.672766 -0.43672,1.65e-4 -4.2001,1.525947 -8.36308,3.390618 -4.16295,1.86467 -8.90326,3.925098 -10.53403,4.578723 -2.84022,1.138375 -3.08226,1.184033 -5.7511,1.084857 -3.01407,-0.112013 -5.85272,-0.839281 -9.90057,-2.536576 -1.26194,-0.529127 -2.41874,-0.889498 -2.5707,-0.80081 -0.5636,0.328943 -0.68084,2.756708 -0.18504,3.831353 0.78522,1.701977 3.98824,3.584044 8.3572,4.91065 3.34166,1.014677 5.39057,1.512852 6.50609,1.581879 0.2045,0.01272 0.22944,-0.820335 0.0552,-1.851124 z m -96.595307,3.843849 c -0.03536,-0.567952 -0.01168,-4.540989 0.05286,-8.828978 0.130225,-8.666395 0.352639,-8.07291 -3.199682,-8.537866 L 50.935187,60.500155 57.357398,58.9312 c 3.532216,-0.862938 6.687913,-1.629438 7.012657,-1.703345 0.476694,-0.108515 0.538819,1.3032 0.322464,7.327693 -0.147389,4.10413 -0.103453,8.305429 0.09764,9.336206 l 0.36563,1.874128 1.720234,0.248015 c 0.946132,0.136421 1.720236,0.317773 1.720236,0.403029 0,0.08522 -0.67089,0.29099 -1.490871,0.457203 -2.874651,0.582694 -9.297146,1.925188 -10.092045,2.10953 -0.675516,0.156672 -0.812965,0.0224 -0.86706,-0.846466 z m 42.955478,0.692319 c -2.972063,-0.252797 -4.305229,-0.571308 -6.118313,-1.461712 -4.311527,-2.11739 -6.26153,-5.356516 -6.782036,-11.265497 -0.169842,-1.928145 -0.168282,-3.832491 0.0036,-4.231886 0.267695,-0.622495 1.308755,-1.005552 7.292673,-2.68332 6.851215,-1.920947 7.009735,-1.950223 8.565305,-1.582058 2.52059,0.596564 6.39973,2.438837 6.72425,3.193459 0.5937,1.380573 -1.68157,3.02667 -8.74144,6.324205 -2.537561,1.185247 -4.669623,2.181626 -4.737932,2.214158 -0.304871,0.145186 1.028873,3.077007 1.961491,4.311668 1.828254,2.42041 6.178361,4.373287 9.772681,4.387215 0.83487,0.0031 1.39775,0.119391 1.25081,0.258139 -0.23585,0.222733 -1.2926,0.34241 -5.75049,0.651261 -0.63075,0.04374 -2.17897,-0.0078 -3.440466,-0.115632 z M 98.679284,65.667837 c 1.562466,-1.776667 1.528866,-3.640819 -0.08254,-4.581329 -1.173562,-0.684943 -2.805522,-1.148067 -3.211205,-0.9113 -0.381012,0.222372 -0.78057,7.065283 -0.456541,7.81879 l 0.320055,0.744246 1.15985,-0.903783 c 0.637928,-0.49708 1.659609,-1.472054 2.270439,-2.166624 z m 22.034666,1.445726 c -0.39617,-0.374137 -1.19872,-4.636988 -1.19872,-6.367202 0,-2.057602 -0.41642,-3.320222 -1.09504,-3.320222 -0.28691,0 -2.17056,0.306081 -4.18593,0.680186 -3.32478,0.617163 -5.73829,0.695121 -5.72246,0.184849 0.004,-0.107631 2.62998,-0.846323 5.83698,-1.641526 5.58634,-1.385176 6.43002,-1.727212 8.37754,-3.396247 7.993,-6.850032 8.86773,-7.801691 9.62101,-10.467349 0.59745,-2.114187 0.20582,-4.380251 -1.40285,-8.117265 -1.17875,-2.73825 -1.14374,-5.297127 0.0955,-6.978372 l 0.97396,-1.32137 2.81058,0.01104 2.81056,0.01104 -1.48184,0.375981 c -3.39398,0.861139 -4.2079,3.612106 -2.41735,8.170529 2.36382,6.017937 0.18459,12.571579 -5.29716,15.93015 -2.89666,1.774746 -5.02627,3.682922 -6.28647,5.632881 -0.92937,1.437999 -1.02854,2.052932 -1.00224,6.214322 0.0156,2.540121 -0.0234,4.618409 -0.0875,4.618409 -0.0643,0 -0.22103,-0.09847 -0.34841,-0.218717 z M 57.586763,57.576845 c 0,-0.223122 7.288131,-10.734881 8.677495,-12.515666 0.868563,-1.11326 1.979371,-2.049112 2.939523,-2.476524 1.475464,-0.656838 2.603592,-0.880733 2.603592,-0.51673 0,0.09372 -1.626515,1.930995 -3.614478,4.082936 -1.987964,2.15193 -5.095719,5.629448 -6.906122,7.727806 -2.884476,3.34327 -3.70001,4.158398 -3.70001,3.698178 z M 104.83588,44.148267 v -1.982943 h 1.80785 c 0.99431,0 1.93543,0.120481 2.09135,0.267731 0.16542,0.156215 -0.30104,0.267742 -1.11974,0.267742 -1.20766,0 -1.40327,0.0977 -1.40327,0.700543 0,0.602878 0.15987,0.682713 1.14684,0.572598 0.7175,-0.08003 1.14681,-0.0055 1.14681,0.199399 0,0.209246 -0.43595,0.278694 -1.20845,0.192511 -1.12471,-0.125481 -1.19413,-0.07782 -1.00153,0.688068 0.15898,0.632221 0.0139,0.852363 -0.62647,0.950092 -0.74995,0.114464 -0.83339,-0.07131 -0.83339,-1.855741 z m 6.58924,1.719927 c -3.1025,-0.876771 -1.73478,-3.680483 1.80342,-3.69692 1.62275,-0.0066 3.53432,1.075308 3.53432,2.002063 0,0.381512 -0.50671,0.989391 -1.12597,1.350834 -1.18491,0.691545 -2.57909,0.805424 -4.21177,0.344023 z m 2.72086,-0.289258 c 1.29556,-0.563392 1.49166,-1.928455 0.371,-2.582522 -1.15468,-0.673915 -1.58616,-0.698168 -2.53802,-0.142625 -0.94298,0.550365 -0.92212,1.950787 0.0383,2.570191 0.89911,0.57984 1.11541,0.595582 2.1287,0.154956 z m 3.97078,0.490842 c -0.0124,-0.01225 -0.0638,-0.895856 -0.11463,-1.963514 l -0.0924,-1.941205 1.3888,1.32e-4 c 1.48648,1.43e-4 3.42785,0.641317 3.42785,1.132105 0,0.164118 -0.30317,0.493923 -0.67369,0.732886 -0.59874,0.386137 -0.54255,0.517028 0.50516,1.176482 0.64835,0.408094 1.0724,0.804111 0.94234,0.880027 -0.40164,0.234426 -2.11155,-0.425437 -2.88293,-1.112533 -0.67315,-0.599622 -0.67148,-0.68873 0.0205,-1.092584 0.88187,-0.514699 0.72526,-1.010895 -0.35771,-1.133485 -0.64969,-0.07352 -0.76473,0.17147 -0.76473,1.628721 0,1.346197 -0.14806,1.715279 -0.6881,1.715279 -0.37845,0 -0.69811,-0.0099 -0.71037,-0.02241 z M 43.91575,39.575593 c -2.610873,-0.75098 -3.54789,-2.531709 -2.157771,-4.100642 1.047196,-1.181913 2.427426,-1.609358 5.196587,-1.609358 2.193753,0 2.639457,0.100787 4.026494,0.910284 4.495762,2.623919 -1.193311,6.4887 -7.06531,4.799716 z m 4.232206,-0.127038 c 1.431025,-0.380551 2.290808,-1.794054 1.961874,-3.225362 -0.318386,-1.385408 -1.444588,-2.089869 -3.341013,-2.089869 -2.144624,0 -3.402665,1.010829 -3.402665,2.734034 0,1.105456 0.220616,1.451918 1.340902,2.105754 1.496923,0.873679 1.790695,0.914258 3.440902,0.475443 z m 58.293484,0.38394 c -1.39844,-0.196386 -3.31043,-1.370637 -3.59795,-2.209665 -0.37621,-1.097872 0.47539,-2.582787 1.84069,-3.209598 2.41645,-1.109364 7.65039,-0.527338 8.82848,0.981729 2.08214,2.667138 -1.89691,5.164183 -7.07122,4.437534 z m 3.87102,-0.545299 c 1.95085,-0.922428 2.0599,-3.456046 0.20034,-4.655302 -0.99286,-0.640312 -2.98676,-0.637928 -4.34757,0.0055 -0.90378,0.427125 -1.06852,0.756422 -1.08296,2.164504 -0.0155,1.493624 0.11257,1.725798 1.27006,2.307427 1.52622,0.766843 2.6118,0.815691 3.96013,0.178171 z M 28.039819,37.413065 c 0.319256,-1.288474 0.647042,-2.643877 0.728412,-3.01201 0.124371,-0.562685 0.502079,-0.317385 2.370506,1.53947 1.222408,1.214843 2.288313,2.208793 2.368674,2.208793 0.270878,0 3.894973,-3.792276 3.924337,-4.106448 0.06618,-0.708148 0.82619,0.920871 1.11491,2.389691 0.171125,0.870599 0.483171,1.974454 0.693425,2.453033 0.366376,0.833938 0.326568,0.870135 -0.956933,0.870135 -1.264666,0 -1.341006,-0.06336 -1.371456,-1.137878 -0.0177,-0.625818 -0.188858,-1.371344 -0.380285,-1.656705 -0.291164,-0.434046 -0.603069,-0.248104 -1.908562,1.137867 -0.858282,0.91119 -1.667687,1.653128 -1.798672,1.648746 -0.130983,-0.0044 -0.943924,-0.727256 -1.806518,-1.6064 -0.862597,-0.879132 -1.739916,-1.598441 -1.9496,-1.598441 -0.209685,0 -0.381247,0.722885 -0.381247,1.6064 0,1.162915 -0.169441,1.606411 -0.613729,1.606411 -0.509946,0 -0.515575,-0.396138 -0.03326,-2.342664 z m 28.629485,-0.468533 v -2.811208 h -1.284443 c -0.706442,0 -1.532155,0.144579 -1.834916,0.321271 -0.428146,0.249893 -0.550476,0.220142 -0.550476,-0.13386 0,-0.399483 0.589152,-0.455142 4.816659,-0.455142 4.227508,0 4.816658,0.05564 4.816658,0.455142 0,0.354002 -0.122337,0.383753 -0.550475,0.13386 -0.302762,-0.176692 -1.128474,-0.321271 -1.834918,-0.321271 H 58.96295 v 2.811208 2.811197 h -1.146822 -1.146824 z m 7.569035,-0.133882 v -2.945057 l 1.376187,-5.41e-4 1.376189,-5.3e-4 -0.143297,2.945609 -0.143297,2.945598 h -1.232886 -1.232893 z m 7.624789,0.698831 c -1.039872,-1.309062 -1.890671,-2.444136 -1.890671,-2.522381 0,-0.07827 -0.341635,-0.362613 -0.759194,-0.631901 -0.72408,-0.466976 -0.66979,-0.489606 1.173897,-0.489606 1.063198,0 1.823826,0.103216 1.690286,0.229282 -0.281449,0.265788 1.963633,3.786723 2.414555,3.786723 0.387827,0 2.611254,-3.23904 2.527048,-3.681344 -0.03503,-0.184066 0.315698,-0.334661 0.779418,-0.334661 0.770593,0 0.735145,0.132447 -0.411981,1.539459 -0.690311,0.84671 -1.790062,2.202114 -2.443893,3.011997 l -1.18879,1.47254 z m 6.470465,1.777715 c 0.387713,-0.257697 0.859578,-0.763707 1.048587,-1.124476 0.189005,-0.36077 1.026231,-1.502864 1.8605,-2.537979 1.427538,-1.771225 1.542978,-1.842957 1.960582,-1.218199 0.244054,0.365118 1.279645,1.718049 2.301318,3.006523 l 1.857589,2.342664 h -1.254616 c -0.972764,0 -1.371309,-0.180445 -1.77407,-0.803205 -0.458488,-0.708943 -0.735833,-0.803206 -2.363303,-0.803206 -1.502275,0 -1.908905,0.111595 -2.195016,0.602404 -0.193137,0.331328 -0.310262,0.69276 -0.260278,0.803195 0.04999,0.110446 -0.35396,0.200812 -0.897669,0.200812 -0.904206,0 -0.928409,-0.03996 -0.283624,-0.468533 z m 4.942016,-1.642597 c 0,-0.13035 -0.288669,-0.637696 -0.641492,-1.127435 l -0.641492,-0.890447 -0.734695,1.026272 c -0.932589,1.302681 -0.971273,1.228609 0.641491,1.228609 0.756903,0 1.376188,-0.106638 1.376188,-0.236999 z m 7.254502,-0.699515 0.144199,-2.81176 h -1.313958 c -0.722678,0 -1.561672,0.144579 -1.864433,0.321271 -0.428144,0.249893 -0.550475,0.220142 -0.550475,-0.13386 0,-0.398037 0.57566,-0.455142 4.587295,-0.455142 2.523011,0 4.587295,0.0935 4.587295,0.207877 0,0.114321 -0.83945,0.161138 -1.865444,0.104099 l -1.865441,-0.103878 0.145205,2.841587 0.145204,2.841588 h -1.146823 -1.146824 z m 7.654195,-0.134434 v -2.945057 l 1.146827,-2.21e-4 1.146827,-2.32e-4 v 2.944892 2.944891 l -1.146827,4.09e-4 -1.146827,3.97e-4 V 36.810661 Z M 116.22262,36.7443 c 0.11945,-2.433737 0.25643,-2.935387 0.71295,-2.610947 0.31079,0.22087 1.9614,1.184716 3.66799,2.141862 l 3.1029,1.740271 -0.14598,-2.075562 c -0.14477,-2.058175 -0.13648,-2.075551 1.00081,-2.075484 l 1.14681,8.8e-5 -0.1446,2.988485 -0.14459,2.988463 -3.30664,-1.916985 c -1.81863,-1.054356 -3.47352,-1.917007 -3.67752,-1.917007 -0.204,0 -0.30235,0.84363 -0.21858,1.874738 0.14998,1.844955 0.134,1.874739 -0.99449,1.874683 l -1.14683,-5.5e-5 z"
       style="fill:#222222;stroke-width:0.3504529" />
  </g>
</svg>
